<?xml version="1.0" encoding="UTF-8"?>
<svg id="Layer_1" data-name="Layer 1" xmlns="http://www.w3.org/2000/svg" viewBox="0 0 416.48 477.94">
  <defs>
    <style>
      .cls-1 {
        fill: #fff;
      }

      .cls-2 {
        fill: #31567d;
      }

      .cls-3 {
        fill: #35597f;
      }

      .cls-4 {
        fill: #ff1b0f;
      }

      .cls-5 {
        fill: #30567d;
      }
    </style>
  </defs>
  <path class="cls-1" d="m269.95,140.95c.7.05,1.4.07,2.11.02,3.25-.22,6.62-.68,9.8-1.32.69-.14,1.37-.33,2.03-.57,2.99-1.09,6.01-2.34,8.86-3.77,3.5-1.89,6.3-4.46,8.42-7.73,2.65-2.9,4.44-6.3,5.37-10.2,1.25-3.99,1.43-7.98.54-11.96-.18-3.99-1.37-7.71-3.56-11.15-4.13-6.41-10.28-12.04-17.93-13.79l-7.98-1.07c-5.42.02-10.46,1.38-15.14,4.1-.31.16-.63.31-.95.45l7.17-3.02c-1.16.47-2.31.8-3.55,1l7.98-1.07c-1.06.13-2.09.16-3.16.09-4.13-.16-7.98.71-11.56,2.58-3.72,1.21-6.94,3.28-9.65,6.2-2.93,2.72-4.99,5.94-6.2,9.65-1.88,3.58-2.74,7.43-2.58,11.56l1.07,7.98c1.43,5.08,4,9.49,7.72,13.24l6.07,4.69c4.68,2.71,9.73,4.08,15.14,4.1h0Z"/>
  <path class="cls-1" d="m135.51,334.64c18.13-2.95,36.5-9.98,51.78-20.21,8.16-5.46,14.81-11.94,17.53-21.68,3-10.77.28-21.69-6.44-30.38-8.65-11.2-23.35-19.31-37.92-17.65-7.84.89-15.58,2.65-21.21,8.79-4.55,4.96-7.35,10.53-8.25,17.23-2.01,14.98,7.1,28.38,21.49,32.92,15.13,4.77,31.31,7.24,47.17,7.42,16.06.18,31.32-3.65,47.05-6.03l-7.98,1.07c2.32-.23,4.47-.25,6.79.05l-7.98-1.07c1.08.19,2.13.5,3.14.91l-7.17-3.02c.95.43,1.88.87,2.79,1.4.78.46,5.03,3.62.83.38-3.9-3.01-.75-.55.08.11,2.43,1.92,4.88,3.84,7.36,5.69,4.06,3.03,8.37,5.67,12.96,7.83,13.21,6.21,25.71,9.46,40.25,10.81-2.66-19.64-5.32-39.29-7.98-58.93-25.09,7.66-50.89,12.41-76.85,15.95l7.98-1.07c-10.78,1.45-21.58,2.7-32.4,3.89-6.35.69-12.85,1.17-19.06,2.7-8.93,2.21-15.67,6.63-22.7,12.27-3.6,2.88-6.52,8.89-7.72,13.24-1.8,6.53-1.09,13.37,1.51,19.53,2.08,4.93,5,8.73,9.24,12,5.68,4.39,11.02,5.59,18.18,6.44,23.78,2.83,47.56,5.67,71.34,8.5,7.1.85,16.39-3.96,21.21-8.79,5.2-5.2,9.12-13.74,8.79-21.21s-2.9-15.81-8.79-21.21c-6.24-5.73-12.85-7.79-21.21-8.79-23.78-2.83-47.56-5.67-71.34-8.5,7.07,17.07,14.14,34.14,21.21,51.21-6.63,5.32-3.24,2.6-.95,1.54l-7.17,3.02c3.41-1.31,6.85-1.99,10.46-2.48l-7.98,1.07c41.15-4.93,82.4-9.32,122.19-21.47,14.35-4.39,23.49-18,21.49-32.92-2.09-15.58-14.38-24.62-29.46-26.01-1.12-.09-2.24-.21-3.35-.35l7.98,1.07c-6.73-.95-13.17-2.71-19.45-5.32l7.17,3.02c-2.57-1.14-5.1-2.36-7.54-3.76-1.82-1.04-5.86-2.79-7.05-4.6.39.6,5.42,4.25,2.25,1.7-2.61-2.1-5.26-4.17-7.95-6.16-3.07-2.27-6.06-3.64-9.62-5.14-16.47-6.95-32.03-1.24-48.66,1.21l7.98-1.07c-12.03,1.6-24.08,1.63-36.12.11l7.98,1.07c-7.8-1.1-15.43-2.81-22.94-5.18l-7.98,58.93c1.55-.18,2.87-.19,4.42-.04l-7.98-1.07c1.52.3,2.81.68,4.24,1.26l-7.17-3.02c2.65,1.49,1.87.74-2.37-2.27,2.16,2.22,1.5,1.3-1.99-2.77l-3.02-7.17.47,1.22-1.07-7.98.08,1.29,1.07-7.98-.39,1.19,3.02-7.17c8.87-7.88,11.03-10.26,6.49-7.12l-1.48.94c-1.73,1.08-3.5,2.11-5.29,3.1-3.33,1.83-6.75,3.47-10.23,4.98l7.17-3.02c-8.67,3.61-17.61,6.18-26.88,7.68-6.96,1.13-14.52,7.96-17.93,13.79-3.76,6.43-5.36,15.91-3.02,23.12s6.85,14.26,13.79,17.93c7.56,3.99,14.72,4.39,23.12,3.02h0Z"/>
  <path class="cls-1" d="m156.77,84.43c-10.23,4.55-21.42,11.42-27.13,21.26-6.07,10.47-5.72,23.47.33,33.82,1.81,3.1,4.33,6.11,6.82,8.79-5.84-6.29-1.89-2.28-.61.5l-3.02-7.17c1.58,3.97,2.44,8.04,3.03,12.27l-1.07-7.98c.26,2.12.47,4.23.66,6.36.73,8.11,2.85,15.28,8.79,21.21,5.2,5.2,13.74,9.12,21.21,8.79,15.04-.67,31.52-13.26,30-30-.71-7.87-1.26-16.1-3.68-23.68-1.39-4.36-3.19-8.9-5.48-12.87-1.74-3-4.37-6.21-6.4-8.66l-1-1.21c-1.99-2.28-1.25-1.36,2.22,2.77l3.02,7.17-.36-1.21,1.07,7.98.11-1.26-4.1,15.14c-1.35,2.36-3.13,4.28-5.35,5.76-2.39,1.8-2.57,1.97-.55.51,1.19-.73,2.33-1.55,3.54-2.27,2.65-1.59,5.4-2.97,8.22-4.22,6.43-2.86,12-11.45,13.79-17.93,1.98-7.18,1.08-16.74-3.02-23.12s-10.28-12.04-17.93-13.79c-8.35-1.9-15.35-.43-23.12,3.02h0Z"/>
  <path class="cls-1" d="m226.19,109.71c1.76,6.46,3.44,12.92,4.37,19.56l-1.07-7.98c.53,4.63.63,9.16.1,13.8l1.07-7.98c-.52,3.38-1.34,6.57-2.61,9.75l3.02-7.17c-.44,1.04-.94,2.04-1.49,3.03-7.3,13.88-4,33.25,10.76,41.05,13.85,7.32,33.24,4.07,41.05-10.76,5.89-11.2,9.06-23.7,8.55-36.41-.45-11.16-2.98-22.13-5.9-32.86-4.12-15.14-21.52-25.93-36.9-20.95-15.51,5.02-25.37,20.68-20.95,36.9h0Z"/>
  <path class="cls-1" d="m8.98,223.26c0-53.27-.11-106.54.06-159.82.06-19.76,9.89-34.4,25.61-45.51,9.79-6.92,20.85-10.01,32.72-10.01,93.18-.04,186.36.09,279.55-.08,27.24-.05,50.19,19.91,56.47,40.73,2.55,8.46,2.34,17.13,2.33,25.79-.01,30.44-.06,60.88-.08,91.32-.03,42.56-.03,85.13-.05,127.69-.01,29.91-.02,59.82-.04,89.73,0,14.62-4.88,27.48-14.77,38.18-11.83,12.8-26.72,19.4-44.13,19.43-69.82.13-139.64.06-209.46.06-23.01,0-46.02.08-69.02-.04-15.58-.08-29.39-5.19-40.81-15.88-12.03-11.26-18.29-25.26-18.31-41.79-.07-53.27-.03-106.54-.03-159.82h-.04Zm85.49,190.89c-.22-.1-.06.04.08.02,1.67-.2,3.34-.41,5-.65,22.43-3.27,42.54-11.64,59.58-26.89.8-.72,2.39-1.12,3.45-.9,17.81,3.78,35.77,5.79,54.01,5.19,20.39-.67,40.3-3.91,59.59-10.61,19.32-6.7,36.88-16.37,50.85-31.64,13.4-14.65,20.73-31.67,18.19-51.84-2.26-18-11.91-32.12-25.08-44-14.86-13.39-32.43-21.92-51.27-28.14-22.53-7.44-45.73-9.91-69.33-9.3-29.68.77-57.77,7.69-83.75,22.31-14.13,7.95-26.41,18.05-35.44,31.74-8.29,12.58-12.31,26.31-10.01,41.32,2.9,18.87,13.89,33.07,28.09,44.87,6.08,5.05,13.11,8.96,19.8,13.27,1.41.91,1.89,1.66,1.53,3.37-2.02,9.55-5.17,18.66-11.3,26.35-4.32,5.42-9.29,10.33-13.99,15.5ZM247.91,57.82c2.82,1.71,5.7,3.12,8.18,5.05,4.25,3.31,6.91,7.76,8,13.08.38,1.86-.06,3.48-1.98,4.1-1.99.63-3.15-.65-3.88-2.33-.49-1.14-.84-2.33-1.35-3.46-3.24-7.2-8.88-10.75-16.72-10.92-.97-.02-2.09.26-2.88-.13-1.01-.51-2.1-1.41-2.49-2.41-.25-.64.44-2.02,1.11-2.62,6.42-5.67,12.87-11.32,19.45-16.8,1.71-1.43,1.38-2.43.39-3.95-7.29-11.18-24.29-15.21-36.18-8.56-5.28,2.95-7.85,7.42-7.85,13.45,0,17.08-.01,34.16-.02,51.23,0,27.43-.04,54.86.02,82.29.02,10.7,5.83,18.99,14.68,20.82,8.18,1.69,15.41-.82,21.78-5.94,1.47-1.18,2.69-1.5,4.53-.99,13.34,3.69,28.94-2.88,33.33-17.51.26-.85,1.25-1.64,2.1-2.13,13.31-7.7,19.39-23.19,14.72-37.91-.55-1.72-.35-2.89.65-4.36,8.71-12.83,8.17-27.76-1.7-38.94-2.71-3.07-6.39-5.26-9.52-7.98-.73-.63-1.28-1.75-1.43-2.72-.71-4.61-.72-9.39-1.97-13.83-2.99-10.63-14.24-19.64-24.58-20.26-.96-.06-2.25.13-2.89.73-4.58,4.26-9.04,8.66-13.52,12.99Zm-43.58,103.28c-1.93.16-3.14.26-4.35.37-8.41.76-16.09-1.26-22.47-6.8-2.38-2.07-4.06-5.03-5.73-7.78-.4-.67.19-2.71.88-3.08.89-.47,2.36,0,3.52.3.49.13.88.84,1.22,1.35,5.95,8.8,14.34,11.12,24.36,9.32,1.63-.29,2.17-1.01,2.16-2.64-.05-22.3-.07-44.59-.04-66.89,0-1.8-.67-2.3-2.35-2.22-2.38.11-4.78.14-7.16.02-13.49-.7-24.98-13.07-24.68-26.49.01-.61-.04-1.41.3-1.79.77-.85,1.84-2.16,2.65-2.06,1.04.12,2.06,1.33,2.85,2.27.37.45.18,1.36.25,2.07.44,4.5,1.79,8.68,4.65,12.22,5.38,6.65,12.53,8.38,20.71,7.45,2.13-.24,2.8-.94,2.78-3.09-.09-10.44.02-20.88-.01-31.32-.02-6.73-3-11.79-9.19-14.56-10.32-4.62-20.3-3.59-29.91,2.19-10.68,6.42-14.18,19.19-8.07,29.93.9,1.59,1.26,2.93-.3,4.21-1.59,1.31-3.33.72-4.22-.59-1.74-2.58-3.55-5.31-4.38-8.25-.86-3.06-.6-6.43-.84-9.67-10.43-.05-24.42,15.22-22.74,27.53,1.48-.24,2.97-.71,4.44-.66,4.12.14,8.26.29,12.32.86,1.76.25,3.29,1.84,2.64,3.93-.65,2.09-2.48,2.5-4.55,2.14-1.82-.31-3.69-.79-5.5-.67-12.05.76-20.42,7.34-25.41,17.79-5.25,10.98-2.89,21.58,3.97,31.27,1.09,1.54,1.29,2.78.72,4.58-4.8,15.09,1.44,30.46,15.2,38.11,1.2.67,1.99,2.22,2.79,3.47,2.01,3.16,3.42,6.89,5.97,9.51,7.48,7.66,16.75,9.38,26.91,6.56,1.83-.51,3.06-.09,4.58.96,2.67,1.85,5.42,3.86,8.46,4.84,11.73,3.77,23.39.07,26.07-12.32,1.54-7.13,1.05-14.69,1.49-22.36Z"/>
  <path class="cls-5" d="m.15,238.6C.15,181.96-.12,125.32.28,68.68.44,45.24,10.89,26.55,29.93,12.76,42.36,3.77,56.38,0,71.57,0c91.33,0,182.66-.04,273.99.05,22.04.02,40.42,8.47,54.69,25.39,8.6,10.2,13.78,21.97,15.25,35.26.52,4.74.85,9.52.86,14.28.07,56.64.04,113.28.06,169.92.02,50.89.09,101.77.04,152.66,0,7.42-.05,14.9-1.04,22.23-2.06,15.29-8.7,28.43-20.08,39.08-13.7,12.81-29.84,19.09-48.6,19.07-92.48-.06-184.96-.03-277.44-.02-22.77,0-41.09-9.16-55.13-26.93C4.73,439.04.1,425.25.07,410.11c-.12-57.17-.05-114.34-.05-171.51h.13Zm9.83-15.34h.04c0,53.27-.04,106.54.03,159.82.02,16.53,6.28,30.54,18.31,41.79,11.43,10.7,25.23,15.8,40.81,15.88,23.01.12,46.02.04,69.02.04,69.82,0,139.64.07,209.46-.06,17.41-.03,32.31-6.63,44.13-19.43,9.89-10.7,14.76-23.56,14.77-38.18.02-29.91.02-59.82.04-89.73.02-42.56.02-85.13.05-127.69.02-30.44.07-60.88.08-91.32,0-8.66.22-17.34-2.33-25.79-6.28-20.82-29.23-40.78-56.47-40.73-93.18.17-186.36.04-279.55.08-11.87,0-22.93,3.09-32.72,10.01-15.72,11.11-25.54,25.75-25.61,45.51-.17,53.27-.06,106.54-.06,159.82Z"/>
  <path class="cls-4" d="m95.47,414.14c4.7-5.17,9.67-10.08,13.99-15.5,6.13-7.69,9.28-16.8,11.3-26.35.36-1.71-.13-2.46-1.53-3.37-6.68-4.3-13.72-8.21-19.8-13.27-14.19-11.81-25.19-26-28.09-44.87-2.3-15.01,1.71-28.75,10.01-41.32,9.03-13.69,21.31-23.79,35.44-31.74,25.98-14.62,54.07-21.54,83.75-22.31,23.6-.61,46.79,1.86,69.33,9.3,18.83,6.22,36.41,14.75,51.27,28.14,13.17,11.87,22.82,25.99,25.08,44,2.54,20.16-4.79,37.19-18.19,51.84-13.97,15.26-31.53,24.93-50.85,31.64-19.29,6.69-39.2,9.93-59.59,10.61-18.24.6-36.2-1.42-54.01-5.19-1.06-.22-2.65.18-3.45.9-17.04,15.24-37.15,23.62-59.58,26.89-1.66.24-3.33.45-5,.65-.14.02-.3-.12-.08-.02Zm73.98-114.05h-.19c0-14.59.03-29.18-.02-43.77-.01-3.79-2.3-6.19-5.48-6.09-3.26.1-5.32,2.52-5.31,6.29,0,28.83.02,57.65.03,86.48,0,3.72,2.39,6.4,5.63,6.36,3.15-.04,5.34-2.63,5.34-6.3,0-14.32,0-28.65,0-42.97Zm61.73-.62s-.07,0-.11,0c0,14.43,0,28.85,0,43.28,0,4.12,2.12,6.75,5.46,6.76,3.27,0,5.57-2.77,5.55-6.74-.04-9.47-.11-18.94-.12-28.41-.02-19.38-.03-38.76.03-58.15,0-2.61-.86-4.48-3.3-5.47-3.77-1.54-7.5,1.14-7.51,5.45-.03,14.43,0,28.85,0,43.28Zm-54.22-.11s0,0-.01,0c0,9.2,0,18.4,0,27.6,0,2.86,1.45,4.99,3.82,5.73,2.21.69,4.92-.16,6.18-2.45.76-1.38,1.08-3.17,1.09-4.77.07-17.78.05-35.56.05-53.33,0-3.6-2.46-6.15-5.86-6.11-3.14.04-5.26,2.41-5.27,6.01-.02,9.11,0,18.22,0,27.33Zm82.52.7s.04,0,.06,0c0-9.29.05-18.58-.06-27.86-.02-1.4-.47-3.02-1.29-4.12-1.35-1.8-3.42-2.54-5.69-1.75-2.42.85-3.73,2.65-3.74,5.24-.02,7.78,0,15.57,0,23.35,0,10.97.01,21.93-.03,32.9,0,2.4.65,4.37,2.86,5.55,3.62,1.94,7.82-.75,7.86-5.18.08-9.38.02-18.75.02-28.13Zm-108.29-1.21s.05,0,.08,0c0-9.1.04-18.2-.02-27.3-.02-3.19-2.52-5.62-5.5-5.59-3.14.03-5.43,2.28-5.44,5.6-.06,17.93-.08,35.86-.07,53.8,0,3.6,2.43,6.17,5.55,6.16,3.24-.02,5.4-2.51,5.4-6.16,0-8.83,0-17.67,0-26.5Zm72.82,2.04h.04c0-8.31,0-16.63,0-24.94,0-3.68-2-5.86-5.34-5.85-3.31,0-5.57,2.27-5.57,5.71-.01,16.72,0,33.43.03,50.15,0,3.75,2.24,6.17,5.49,6.11,3.25-.06,5.34-2.48,5.35-6.24.01-8.31,0-16.63,0-24.94Zm53.41.69s.07,0,.1,0c0-4.95-.03-9.91.01-14.86.02-2.38-.95-4.17-3.13-5.07-2.2-.91-4.59-.81-6.12,1.07-1.02,1.25-1.68,3.16-1.7,4.79-.15,9.55-.06,19.11-.05,28.66,0,3.85,2.04,6.3,5.24,6.33,3.3.03,5.63-2.55,5.64-6.32.02-4.87,0-9.73,0-14.6Zm-81.93-1.85s-.01,0-.02,0c0,4.77-.06,9.54.02,14.3.06,3.54,2.14,5.56,5.41,5.51,3.17-.04,5.36-2.24,5.37-5.61.05-9.36.07-18.72.05-28.08,0-3.1-2.27-5.15-5.47-5.14-3.18.01-5.33,2.08-5.36,5.24-.03,4.59,0,9.18,0,13.77Zm-73.3-.27h-.05c0,3.8-.07,7.61.02,11.41.07,3.07,2.53,5.43,5.41,5.43,3.07,0,5.42-2.38,5.44-5.62.03-7.61.04-15.22-.02-22.82-.03-3.28-2.21-5.37-5.29-5.31-3.3.06-5.46,2.17-5.5,5.5-.05,3.8-.01,7.61-.01,11.41Zm162.17,3.07h-.02c0,2.03.01,4.06,0,6.09-.03,3.57,1.8,5.9,4.81,6.07,3.04.17,5.81-2.19,5.93-5.52.18-4.84.17-9.7-.02-14.54-.12-3.16-2.36-4.99-5.42-4.93-3.03.06-5.14,2.04-5.26,5.14-.1,2.56-.02,5.12-.02,7.68Zm27.92.27c0-1.26.03-2.23,0-3.21-.11-3.03-2.5-5.38-5.45-5.37-3.07.01-5.39,2.17-5.5,5.29-.07,2.03-.05,4.08.09,6.1.21,2.88,2.44,4.9,5.27,4.93,2.51.03,5.01-2.04,5.41-4.6.18-1.13.14-2.29.18-3.15Zm-196.72-.61h.06c0-.88,0-1.76,0-2.64-.04-3.24-2.13-5.38-5.23-5.37-3.1.01-5.21,2.11-5.3,5.32-.05,1.85-.08,3.7-.03,5.55.08,2.92,2.34,5.12,5.24,5.19,2.78.07,5.13-2.23,5.26-5.15.04-.97,0-1.94,0-2.91Z"/>
  <path class="cls-2" d="m248.91,57.82c4.48-4.33,8.93-8.73,13.52-12.99.65-.6,1.93-.79,2.89-.73,10.33.61,21.58,9.63,24.58,20.26,1.25,4.44,1.26,9.22,1.97,13.83.15.97.7,2.09,1.43,2.72,3.12,2.72,6.81,4.91,9.52,7.98,9.87,11.18,10.41,26.11,1.7,38.94-1,1.47-1.2,2.64-.65,4.36,4.67,14.72-1.41,30.21-14.72,37.91-.84.49-1.84,1.28-2.1,2.13-4.38,14.63-19.98,21.2-33.33,17.51-1.84-.51-3.05-.19-4.53.99-6.37,5.11-13.6,7.63-21.78,5.94-8.85-1.83-14.66-10.12-14.68-20.82-.06-27.43-.02-54.86-.02-82.29,0-17.08.02-34.16.02-51.23,0-6.03,2.57-10.5,7.85-13.45,11.89-6.65,28.89-2.62,36.18,8.56.99,1.52,1.32,2.53-.39,3.95-6.58,5.48-13.03,11.13-19.45,16.8-.67.59-1.37,1.97-1.11,2.62.39,1,1.48,1.9,2.49,2.41.79.39,1.91.11,2.88.13,7.84.17,13.48,3.72,16.72,10.92.51,1.13.85,2.33,1.35,3.46.73,1.69,1.89,2.97,3.88,2.33,1.92-.61,2.36-2.24,1.98-4.1-1.09-5.32-3.75-9.77-8-13.08-2.48-1.93-5.37-3.34-8.18-5.05Zm24.32,65.5c1.25-1.78,2.86-3.98,4.38-6.25,2.72-4.07,6.52-6.45,11.31-7.14,2.09-.3,4.3.06,6.31-.46,1.29-.33,2.31-1.73,3.44-2.65-.83-1.03-1.52-2.25-2.55-3.01-.69-.51-1.87-.48-2.82-.48-9.51.07-17.04,3.74-22.42,11.83-5.43,8.15-13.71,9.61-22.09,4.41-5.98-3.71-8.79-9.26-9.82-15.92-.35-2.26-1.21-3.98-3.68-4.09-1.74-.08-2.75,1.98-2.56,4.78.98,15.06,15.61,26.55,30.46,24.09,1.69-.28,3.98-.15,5.22.8,2.53,1.92,4.61,4.46,6.72,6.88.66.76.81,1.94,1.25,2.91.72,1.57,2.12,2.58,3.59,1.77,1.04-.57,1.97-2.2,2.06-3.42.11-1.38-.46-3.05-1.27-4.22-2.3-3.29-4.87-6.38-7.54-9.82Zm-29.57,22.78c-3.41-.1-5.3.95-5.37,2.98-.07,1.97,1.79,3.08,5.2,3.24,9.36.44,16.02,4.97,19.98,13.43.56,1.19.91,2.48,1.29,3.75.58,1.98,1.65,3.41,3.92,3.15,1.83-.21,2.7-2.18,2.22-4.67-.07-.35-.18-.68-.27-1.03-3.11-12.12-13.91-20.47-26.97-20.85Z"/>
  <path class="cls-3" d="m205.33,161.1c-.44,7.67.05,15.24-1.49,22.36-2.68,12.39-14.34,16.09-26.07,12.32-3.03-.97-5.79-2.99-8.46-4.84-1.52-1.05-2.75-1.47-4.58-.96-10.16,2.81-19.43,1.1-26.91-6.56-2.55-2.62-3.96-6.34-5.97-9.51-.8-1.26-1.58-2.8-2.79-3.47-13.76-7.65-20-23.02-15.2-38.11.57-1.81.37-3.04-.72-4.58-6.85-9.69-9.21-20.29-3.97-31.27,4.99-10.45,13.36-17.03,25.41-17.79,1.81-.11,3.68.36,5.5.67,2.07.36,3.9-.05,4.55-2.14.65-2.09-.88-3.68-2.64-3.93-4.07-.58-8.21-.72-12.32-.86-1.47-.05-2.96.42-4.44.66-1.68-12.31,12.31-27.57,22.74-27.53.23,3.24-.03,6.61.84,9.67.83,2.94,2.63,5.67,4.38,8.25.89,1.31,2.63,1.89,4.22.59,1.56-1.28,1.2-2.62.3-4.21-6.11-10.74-2.61-23.51,8.07-29.93,9.62-5.78,19.6-6.81,29.91-2.19,6.19,2.77,9.17,7.83,9.19,14.56.04,10.44-.07,20.88.01,31.32.02,2.14-.65,2.85-2.78,3.09-8.18.93-15.34-.81-20.71-7.45-2.86-3.54-4.21-7.72-4.65-12.22-.07-.7.12-1.62-.25-2.07-.79-.94-1.81-2.15-2.85-2.27-.81-.09-1.88,1.21-2.65,2.06-.34.38-.28,1.18-.3,1.79-.31,13.43,11.19,25.79,24.68,26.49,2.38.12,4.78.09,7.16-.02,1.68-.08,2.35.42,2.35,2.22-.03,22.3-.02,44.59.04,66.89,0,1.63-.53,2.34-2.16,2.64-10.02,1.8-18.41-.52-24.36-9.32-.34-.51-.73-1.22-1.22-1.35-1.16-.3-2.64-.77-3.52-.3-.69.37-1.28,2.41-.88,3.08,1.67,2.75,3.35,5.71,5.73,7.78,6.39,5.55,14.06,7.56,22.47,6.8,1.21-.11,2.42-.2,4.35-.37Zm-57.4-31.47c10.02,0,16.47-4.39,19.8-13.35,1.48-3.97,3.65-7.42,7.34-9.4,2.81-1.51,6.04-2.27,9.14-3.21,1.76-.53,3.31-1.33,3.28-3.27-.03-2.09-1.85-2.57-3.57-2.83-.43-.07-.88,0-1.32.06-10.04,1.38-17.14,6.51-20.85,16.13-3.2,8.29-10.59,11.61-19.05,8.77-3.96-1.33-7.22-3.65-10.12-6.59-1.38-1.4-3.06-1.98-4.69-.43-1.67,1.58-1.01,3.23.31,4.67,5.47,5.92,12.13,9.33,19.73,9.46Zm12.65,41.45c1.55-.27,4.24-.47,6.72-1.28.98-.32,2.34-2.39,2.06-3-.49-1.1-2.05-1.77-3.26-2.47-.37-.21-1.03.1-1.55.15-5.44.5-10.84.41-15.82-2.14-2.34-1.2-4.43-2.88-6.61-4.37-1.53-1.05-2.97-1.13-4.22.39-1.23,1.49-.56,2.8.52,4.01.29.33.62.63.95.92,5.75,5.05,12.51,7.5,21.2,7.79Z"/>
</svg>